<mxfile host="app.diagrams.net" modified="2020-09-06T15:20:07.437Z" agent="5.0 (Windows NT 10.0; Win64; x64) AppleWebKit/537.36 (KHTML, like Gecko) Chrome/85.0.4183.83 Safari/537.36" etag="mCOGn_nYxQrKFHCFdBBE" version="13.6.6" type="github">
  <diagram id="_SN51KTG4m4e-46WBCsf" name="第 1 页">
    <mxGraphModel dx="2500" dy="2065" grid="1" gridSize="10" guides="1" tooltips="1" connect="1" arrows="1" fold="1" page="1" pageScale="1" pageWidth="827" pageHeight="1169" math="0" shadow="0">
      <root>
        <mxCell id="0" />
        <mxCell id="1" parent="0" />
        <mxCell id="4tyNRVj2yq2_kPP2Rz3b-58" value="" style="rounded=1;whiteSpace=wrap;html=1;strokeColor=#000000;fontSize=21;" vertex="1" parent="1">
          <mxGeometry x="-22.5" y="680" width="1142.5" height="250" as="geometry" />
        </mxCell>
        <mxCell id="4tyNRVj2yq2_kPP2Rz3b-57" value="" style="rounded=1;whiteSpace=wrap;html=1;strokeColor=#000000;fontSize=21;" vertex="1" parent="1">
          <mxGeometry x="70" y="350" width="970" height="260" as="geometry" />
        </mxCell>
        <mxCell id="4tyNRVj2yq2_kPP2Rz3b-21" value="" style="rounded=1;whiteSpace=wrap;html=1;strokeColor=#000000;fontSize=23;arcSize=20;" vertex="1" parent="1">
          <mxGeometry x="287" y="-141.25" width="790" height="421.25" as="geometry" />
        </mxCell>
        <mxCell id="4tyNRVj2yq2_kPP2Rz3b-1" value="" style="ellipse;whiteSpace=wrap;html=1;aspect=fixed;" vertex="1" parent="1">
          <mxGeometry x="-290" y="-161.25" width="480" height="480" as="geometry" />
        </mxCell>
        <mxCell id="4tyNRVj2yq2_kPP2Rz3b-2" value="&lt;h1&gt;宿主机&lt;/h1&gt;" style="text;html=1;align=center;verticalAlign=middle;resizable=0;points=[];autosize=1;" vertex="1" parent="1">
          <mxGeometry x="-102.5" y="-141.25" width="90" height="50" as="geometry" />
        </mxCell>
        <mxCell id="4tyNRVj2yq2_kPP2Rz3b-4" value="" style="ellipse;whiteSpace=wrap;html=1;aspect=fixed;" vertex="1" parent="1">
          <mxGeometry x="-217.5" y="-66.25" width="335" height="335" as="geometry" />
        </mxCell>
        <mxCell id="4tyNRVj2yq2_kPP2Rz3b-5" value="&lt;h1&gt;虚拟机&lt;/h1&gt;" style="text;html=1;align=center;verticalAlign=middle;resizable=0;points=[];autosize=1;" vertex="1" parent="1">
          <mxGeometry x="-82.5" y="-31.25" width="90" height="50" as="geometry" />
        </mxCell>
        <mxCell id="4tyNRVj2yq2_kPP2Rz3b-7" value="" style="ellipse;whiteSpace=wrap;html=1;aspect=fixed;" vertex="1" parent="1">
          <mxGeometry x="-152.5" y="28.75" width="190" height="190" as="geometry" />
        </mxCell>
        <mxCell id="4tyNRVj2yq2_kPP2Rz3b-8" value="&lt;h1&gt;node&lt;/h1&gt;" style="text;html=1;align=center;verticalAlign=middle;resizable=0;points=[];autosize=1;" vertex="1" parent="1">
          <mxGeometry x="-92.5" y="88.75" width="70" height="50" as="geometry" />
        </mxCell>
        <mxCell id="4tyNRVj2yq2_kPP2Rz3b-12" value="&lt;h1&gt;node&lt;/h1&gt;" style="text;html=1;align=center;verticalAlign=middle;resizable=0;points=[];autosize=1;" vertex="1" parent="1">
          <mxGeometry x="663.84" y="-110" width="70" height="50" as="geometry" />
        </mxCell>
        <mxCell id="4tyNRVj2yq2_kPP2Rz3b-13" value="" style="ellipse;whiteSpace=wrap;html=1;aspect=fixed;" vertex="1" parent="1">
          <mxGeometry x="328.25" y="-66.25" width="317.5" height="317.5" as="geometry" />
        </mxCell>
        <mxCell id="4tyNRVj2yq2_kPP2Rz3b-14" value="&lt;h1&gt;pod&lt;/h1&gt;" style="text;html=1;align=center;verticalAlign=middle;resizable=0;points=[];autosize=1;" vertex="1" parent="1">
          <mxGeometry x="457" y="-41.25" width="60" height="50" as="geometry" />
        </mxCell>
        <mxCell id="4tyNRVj2yq2_kPP2Rz3b-15" value="nginx" style="ellipse;whiteSpace=wrap;html=1;aspect=fixed;fontSize=23;" vertex="1" parent="1">
          <mxGeometry x="387" y="28.75" width="80" height="80" as="geometry" />
        </mxCell>
        <mxCell id="4tyNRVj2yq2_kPP2Rz3b-16" value="web" style="ellipse;whiteSpace=wrap;html=1;aspect=fixed;fontSize=23;" vertex="1" parent="1">
          <mxGeometry x="517" y="18.75" width="80" height="80" as="geometry" />
        </mxCell>
        <mxCell id="4tyNRVj2yq2_kPP2Rz3b-17" value="transmission" style="ellipse;whiteSpace=wrap;html=1;aspect=fixed;fontSize=23;flipH=0;flipV=1;direction=west;" vertex="1" parent="1">
          <mxGeometry x="387" y="138.75" width="177.78" height="60" as="geometry" />
        </mxCell>
        <mxCell id="4tyNRVj2yq2_kPP2Rz3b-27" value="" style="ellipse;whiteSpace=wrap;html=1;aspect=fixed;" vertex="1" parent="1">
          <mxGeometry x="733.84" y="-60" width="258.31" height="257.5" as="geometry" />
        </mxCell>
        <mxCell id="4tyNRVj2yq2_kPP2Rz3b-28" value="&lt;h1&gt;pod&lt;/h1&gt;" style="text;html=1;align=center;verticalAlign=middle;resizable=0;points=[];autosize=1;" vertex="1" parent="1">
          <mxGeometry x="833" y="-31.25" width="60" height="50" as="geometry" />
        </mxCell>
        <mxCell id="4tyNRVj2yq2_kPP2Rz3b-29" value="nodejs" style="ellipse;whiteSpace=wrap;html=1;aspect=fixed;fontSize=23;" vertex="1" parent="1">
          <mxGeometry x="763" y="38.75" width="81" height="80" as="geometry" />
        </mxCell>
        <mxCell id="4tyNRVj2yq2_kPP2Rz3b-30" value="web" style="ellipse;whiteSpace=wrap;html=1;aspect=fixed;fontSize=23;" vertex="1" parent="1">
          <mxGeometry x="893" y="28.75" width="81" height="80" as="geometry" />
        </mxCell>
        <mxCell id="4tyNRVj2yq2_kPP2Rz3b-53" style="edgeStyle=orthogonalEdgeStyle;rounded=0;orthogonalLoop=1;jettySize=auto;html=1;exitX=1;exitY=0.25;exitDx=0;exitDy=0;entryX=0;entryY=0.25;entryDx=0;entryDy=0;fontSize=21;" edge="1" parent="1" source="4tyNRVj2yq2_kPP2Rz3b-33" target="4tyNRVj2yq2_kPP2Rz3b-37">
          <mxGeometry relative="1" as="geometry" />
        </mxCell>
        <mxCell id="4tyNRVj2yq2_kPP2Rz3b-33" value="" style="rounded=1;whiteSpace=wrap;html=1;strokeColor=#000000;fontSize=23;" vertex="1" parent="1">
          <mxGeometry x="140" y="430" width="210" height="140" as="geometry" />
        </mxCell>
        <mxCell id="4tyNRVj2yq2_kPP2Rz3b-34" value="&lt;h1&gt;宿主机(windows)&lt;/h1&gt;" style="text;html=1;align=center;verticalAlign=middle;resizable=0;points=[];autosize=1;" vertex="1" parent="1">
          <mxGeometry x="151.25" y="440" width="200" height="50" as="geometry" />
        </mxCell>
        <mxCell id="4tyNRVj2yq2_kPP2Rz3b-35" value="d:\web" style="text;html=1;align=center;verticalAlign=middle;resizable=0;points=[];autosize=1;fontSize=23;" vertex="1" parent="1">
          <mxGeometry x="211.25" y="520" width="80" height="30" as="geometry" />
        </mxCell>
        <mxCell id="4tyNRVj2yq2_kPP2Rz3b-54" style="edgeStyle=orthogonalEdgeStyle;rounded=0;orthogonalLoop=1;jettySize=auto;html=1;exitX=0;exitY=0.75;exitDx=0;exitDy=0;entryX=1;entryY=0.75;entryDx=0;entryDy=0;fontSize=21;" edge="1" parent="1" source="4tyNRVj2yq2_kPP2Rz3b-37" target="4tyNRVj2yq2_kPP2Rz3b-33">
          <mxGeometry relative="1" as="geometry" />
        </mxCell>
        <mxCell id="4tyNRVj2yq2_kPP2Rz3b-37" value="" style="rounded=1;whiteSpace=wrap;html=1;strokeColor=#000000;fontSize=23;" vertex="1" parent="1">
          <mxGeometry x="780" y="430" width="210" height="140" as="geometry" />
        </mxCell>
        <mxCell id="4tyNRVj2yq2_kPP2Rz3b-38" value="docker" style="text;html=1;align=center;verticalAlign=middle;resizable=0;points=[];autosize=1;fontSize=21;fontStyle=1" vertex="1" parent="1">
          <mxGeometry x="851.25" y="450" width="80" height="30" as="geometry" />
        </mxCell>
        <mxCell id="4tyNRVj2yq2_kPP2Rz3b-39" value="/work/web" style="text;html=1;align=center;verticalAlign=middle;resizable=0;points=[];autosize=1;fontSize=23;" vertex="1" parent="1">
          <mxGeometry x="825" y="520" width="120" height="30" as="geometry" />
        </mxCell>
        <mxCell id="4tyNRVj2yq2_kPP2Rz3b-40" value="" style="rounded=1;whiteSpace=wrap;html=1;strokeColor=#000000;fontSize=23;" vertex="1" parent="1">
          <mxGeometry x="44" y="760" width="210" height="140" as="geometry" />
        </mxCell>
        <mxCell id="4tyNRVj2yq2_kPP2Rz3b-41" value="&lt;h1&gt;宿主机(windows)&lt;/h1&gt;" style="text;html=1;align=center;verticalAlign=middle;resizable=0;points=[];autosize=1;" vertex="1" parent="1">
          <mxGeometry x="55.25" y="770" width="200" height="50" as="geometry" />
        </mxCell>
        <mxCell id="4tyNRVj2yq2_kPP2Rz3b-42" style="edgeStyle=orthogonalEdgeStyle;rounded=0;orthogonalLoop=1;jettySize=auto;html=1;fontSize=23;" edge="1" parent="1" source="4tyNRVj2yq2_kPP2Rz3b-43">
          <mxGeometry relative="1" as="geometry">
            <mxPoint x="424" y="865" as="targetPoint" />
          </mxGeometry>
        </mxCell>
        <mxCell id="4tyNRVj2yq2_kPP2Rz3b-43" value="d:\web" style="text;html=1;align=center;verticalAlign=middle;resizable=0;points=[];autosize=1;fontSize=23;" vertex="1" parent="1">
          <mxGeometry x="115.25" y="850" width="80" height="30" as="geometry" />
        </mxCell>
        <mxCell id="4tyNRVj2yq2_kPP2Rz3b-52" style="edgeStyle=orthogonalEdgeStyle;rounded=0;orthogonalLoop=1;jettySize=auto;html=1;exitX=0;exitY=0.75;exitDx=0;exitDy=0;entryX=1;entryY=0.75;entryDx=0;entryDy=0;fontSize=21;" edge="1" parent="1" source="4tyNRVj2yq2_kPP2Rz3b-44" target="4tyNRVj2yq2_kPP2Rz3b-47">
          <mxGeometry relative="1" as="geometry" />
        </mxCell>
        <mxCell id="4tyNRVj2yq2_kPP2Rz3b-44" value="" style="rounded=1;whiteSpace=wrap;html=1;strokeColor=#000000;fontSize=23;" vertex="1" parent="1">
          <mxGeometry x="764" y="760" width="210" height="140" as="geometry" />
        </mxCell>
        <mxCell id="4tyNRVj2yq2_kPP2Rz3b-45" value="pod" style="text;html=1;align=center;verticalAlign=middle;resizable=0;points=[];autosize=1;fontSize=21;fontStyle=1" vertex="1" parent="1">
          <mxGeometry x="850.25" y="780" width="50" height="30" as="geometry" />
        </mxCell>
        <mxCell id="4tyNRVj2yq2_kPP2Rz3b-46" value="/work/web" style="text;html=1;align=center;verticalAlign=middle;resizable=0;points=[];autosize=1;fontSize=23;" vertex="1" parent="1">
          <mxGeometry x="809" y="850" width="120" height="30" as="geometry" />
        </mxCell>
        <mxCell id="4tyNRVj2yq2_kPP2Rz3b-51" style="edgeStyle=orthogonalEdgeStyle;rounded=0;orthogonalLoop=1;jettySize=auto;html=1;exitX=1;exitY=0.25;exitDx=0;exitDy=0;entryX=0;entryY=0.25;entryDx=0;entryDy=0;fontSize=21;" edge="1" parent="1" source="4tyNRVj2yq2_kPP2Rz3b-47" target="4tyNRVj2yq2_kPP2Rz3b-44">
          <mxGeometry relative="1" as="geometry" />
        </mxCell>
        <mxCell id="4tyNRVj2yq2_kPP2Rz3b-47" value="" style="rounded=1;whiteSpace=wrap;html=1;strokeColor=#000000;fontSize=23;" vertex="1" parent="1">
          <mxGeometry x="427.25" y="760" width="211" height="140" as="geometry" />
        </mxCell>
        <mxCell id="4tyNRVj2yq2_kPP2Rz3b-48" value="虚拟机" style="text;html=1;align=center;verticalAlign=middle;resizable=0;points=[];autosize=1;fontSize=21;fontStyle=1" vertex="1" parent="1">
          <mxGeometry x="498.5" y="780" width="80" height="30" as="geometry" />
        </mxCell>
        <mxCell id="4tyNRVj2yq2_kPP2Rz3b-49" value="/work/web" style="text;html=1;align=center;verticalAlign=middle;resizable=0;points=[];autosize=1;fontSize=23;" vertex="1" parent="1">
          <mxGeometry x="472.25" y="850" width="120" height="30" as="geometry" />
        </mxCell>
        <mxCell id="4tyNRVj2yq2_kPP2Rz3b-56" value="&lt;h1&gt;docker for window&lt;/h1&gt;" style="text;html=1;align=center;verticalAlign=middle;resizable=0;points=[];autosize=1;" vertex="1" parent="1">
          <mxGeometry x="448.5" y="360" width="220" height="50" as="geometry" />
        </mxCell>
        <mxCell id="4tyNRVj2yq2_kPP2Rz3b-59" value="&lt;h1&gt;minikube&lt;/h1&gt;" style="text;html=1;align=center;verticalAlign=middle;resizable=0;points=[];autosize=1;" vertex="1" parent="1">
          <mxGeometry x="460" y="690" width="120" height="50" as="geometry" />
        </mxCell>
      </root>
    </mxGraphModel>
  </diagram>
</mxfile>
